<?xml version="1.0" standalone="no"?><!DOCTYPE svg PUBLIC "-//W3C//DTD SVG 1.1//EN" "http://www.w3.org/Graphics/SVG/1.1/DTD/svg11.dtd"><svg t="1512454324081" class="icon" style="" viewBox="0 0 1024 1024" version="1.1" xmlns="http://www.w3.org/2000/svg" p-id="3568" xmlns:xlink="http://www.w3.org/1999/xlink" width="200" height="200"><defs><style type="text/css"></style></defs><path d="M379.392 559.616h-209.92c-46.592 0-85.504 38.4-85.504 85.504v209.408c0 46.592 38.4 85.504 85.504 85.504H378.88c46.592 0 85.504-38.4 85.504-85.504V645.12c0-47.104-37.888-85.504-84.992-85.504z m37.376 294.912c0 20.48-16.896 37.376-37.376 37.376h-209.92c-20.48 0-37.376-16.896-37.376-37.376V645.12c0-20.48 16.896-37.376 37.376-37.376H378.88c20.48 0 37.376 16.896 37.376 37.376v209.408zM854.528 559.616H645.12c-46.592 0-85.504 38.4-85.504 85.504v209.408c0 46.592 38.4 85.504 85.504 85.504h209.408c46.592 0 85.504-38.4 85.504-85.504V645.12c-0.512-47.104-38.4-85.504-85.504-85.504z m37.376 294.912c0 20.48-16.896 37.376-37.376 37.376H645.12c-20.48 0-37.376-16.896-37.376-37.376V645.12c0-20.48 16.896-37.376 37.376-37.376h209.408c20.48 0 37.376 16.896 37.376 37.376v209.408zM379.392 84.48h-209.92c-46.592 0-85.504 38.4-85.504 85.504v209.408c0 46.592 38.4 85.504 85.504 85.504H378.88c46.592 0 85.504-38.4 85.504-85.504V169.984c0-47.104-37.888-85.504-84.992-85.504z m37.376 294.912c0 20.48-16.896 37.376-37.376 37.376h-209.92c-20.48 0-37.376-16.896-37.376-37.376V169.984c0-20.48 16.896-37.376 37.376-37.376H378.88c20.48 0 37.376 16.896 37.376 37.376v209.408zM854.528 84.48H645.12c-46.592 0-85.504 38.4-85.504 85.504v209.408c0 46.592 38.4 85.504 85.504 85.504h209.408c46.592 0 85.504-38.4 85.504-85.504V169.984c-0.512-47.104-38.4-85.504-85.504-85.504z m37.376 294.912c0 20.48-16.896 37.376-37.376 37.376H645.12c-20.48 0-37.376-16.896-37.376-37.376V169.984c0-20.48 16.896-37.376 37.376-37.376h209.408c20.48 0 37.376 16.896 37.376 37.376v209.408z" p-id="3569"></path></svg>