<?xml version="1.0" standalone="no"?><!DOCTYPE svg PUBLIC "-//W3C//DTD SVG 1.1//EN" "http://www.w3.org/Graphics/SVG/1.1/DTD/svg11.dtd"><svg t="1512438969765" class="icon" style="" viewBox="0 0 1024 1024" version="1.1" xmlns="http://www.w3.org/2000/svg" p-id="2719" xmlns:xlink="http://www.w3.org/1999/xlink" width="200" height="200"><defs><style type="text/css"></style></defs><path d="M839.91182 959.354678 183.358563 959.354678c-65.929572 0-119.380948-53.435003-119.380948-119.379924l0-656.553257c0-65.927525 53.451376-119.380948 119.380948-119.380948l432.723446 0c8.239662 0 14.933107 6.67605 14.933107 14.915711l0 29.843702c0 8.256034-6.693446 14.932084-14.933107 14.932084L213.202265 123.732046c-49.450249 0-89.535199 40.083927-89.535199 89.533153l0 596.86483c0 49.450249 40.08495 89.535199 89.535199 89.535199l596.86483 0c49.450249 0 89.533153-40.08495 89.533153-89.535199L899.600247 407.250284c0-8.239662 6.692423-14.932084 14.932084-14.932084l29.846772 0c8.236592 0 14.912641 6.693446 14.912641 14.932084l0 432.724469C959.290721 905.919674 905.840368 959.354678 839.91182 959.354678zM892.519991 248.944815 768.484024 131.853004l37.663808-37.815257c29.123294-29.222555 77.007885-29.997198 106.986663-1.698688l15.502066 14.627139c29.964452 28.299533 30.65416 74.940806 1.533936 104.180757L892.519991 248.944815zM301.541219 600.744183l124.020618 117.094882-182.516894 62.447261L301.541219 600.744183zM862.389764 279.21012 455.675692 687.589111 331.655074 570.495252 738.370169 162.119331 862.389764 279.21012z" p-id="2720" fill="#ffffff"></path></svg>