<?xml version="1.0" standalone="no"?><!DOCTYPE svg PUBLIC "-//W3C//DTD SVG 1.1//EN" "http://www.w3.org/Graphics/SVG/1.1/DTD/svg11.dtd"><svg t="1512454756322" class="icon" style="" viewBox="0 0 1024 1024" version="1.1" xmlns="http://www.w3.org/2000/svg" p-id="4252" xmlns:xlink="http://www.w3.org/1999/xlink" width="200" height="200"><defs><style type="text/css"></style></defs><path d="M511.997442 832.495408c143.287427 0 259.879865-112.328321 259.879865-250.384607 0-34.137495-12.462846-61.041238-28.223808-95.095845-13.003152-28.011984-27.940352-60.300364-37.315884-101.103676-22.618137 25.724895-22.476921 56.553017-20.402679 72.512501l22.687722 174.62004L592.12334 500.385475c-70.205968-79.948867-82.95227-167.82324-85.189218-273.120424-83.870176 66.259076-89.147366 172.875303-85.943394 278.443663 0.706081 22.476921 1.27197 41.889039-0.23536 57.990762l-9.188266 98.5362-77.884858-61.759599c-31.333636-24.843828-52.254108-60.607356-66.131163-95.095845-10.155291 24.700565-15.430434 52.394301-15.430434 76.730569C252.119623 720.16811 368.712061 832.495408 511.997442 832.495408M511.997442 885.928365c-173.22732 0-313.639257-136.042419-313.639257-303.81654 0-69.393463 32.226982-154.924465 96.495728-186.965206 0 0 11.522428 115.310236 72.374354 163.581636 7.256264-77.390601-49.024553-332.228637 193.043644-420.656619 0 142.379755-3.110851 241.255693 72.373331 327.185784-6.832615-52.629661 12.509918-135.485741 118.312616-164.676573-0.895393 135.793756 74.682933 181.803649 74.682933 281.529955C825.640792 749.885945 685.227832 885.928365 511.997442 885.928365L511.997442 885.928365 511.997442 885.928365 511.997442 885.928365zM511.997442 885.928365" p-id="4253"></path></svg>