<?xml version="1.0" standalone="no"?><!DOCTYPE svg PUBLIC "-//W3C//DTD SVG 1.1//EN" "http://www.w3.org/Graphics/SVG/1.1/DTD/svg11.dtd"><svg t="1512630021673" class="icon" style="" viewBox="0 0 1024 1024" version="1.1" xmlns="http://www.w3.org/2000/svg" p-id="5551" xmlns:xlink="http://www.w3.org/1999/xlink" width="200" height="200"><defs><style type="text/css"></style></defs><path d="M891.4 872H136.1c-20.2 0-36.6-16.4-36.6-36.6s16.4-36.5 36.6-36.5h755.3c20.2 0 36.6 16.3 36.6 36.5S911.6 872 891.4 872zM223.3 756.6c-9.3 0-18.7-3.6-25.8-10.7-14.3-14.3-14.3-37.4 0-51.7L654 237.6l51.7 51.7-456.5 456.6c-7.2 7.2-16.5 10.7-25.9 10.7zM740.2 254.9l-51.7-51.7 43.1-43.1c7.1-7.1 16.5-10.7 25.9-10.7 9.3 0 18.7 3.6 25.8 10.7 14.3 14.3 14.3 37.4 0 51.7l-43.1 43.1z" p-id="5552"></path></svg>