<?xml version="1.0" standalone="no"?><!DOCTYPE svg PUBLIC "-//W3C//DTD SVG 1.1//EN" "http://www.w3.org/Graphics/SVG/1.1/DTD/svg11.dtd"><svg t="1512629636653" class="icon" style="" viewBox="0 0 1024 1024" version="1.1" xmlns="http://www.w3.org/2000/svg" p-id="3634" xmlns:xlink="http://www.w3.org/1999/xlink" width="200" height="200"><defs><style type="text/css"></style></defs><path d="M767.286 809.834H256.713c-70.387 0-127.643-57.257-127.643-127.643V341.81c0-70.387 57.257-127.643 127.643-127.643h510.573c70.387 0 127.643 57.257 127.643 127.643V682.19c0.001 70.386-57.256 127.643-127.643 127.643zM256.713 256.713c-46.92 0-85.095 38.164-85.095 85.096V682.19c0 46.931 38.174 85.096 85.095 85.096h510.573c46.92 0 85.096-38.164 85.096-85.096V341.81c0-46.931-38.174-85.096-85.096-85.096H256.713z" p-id="3635"></path><path d="M512.01 636.984a21.239 21.239 0 0 1-15.685-6.898l-325.04-354.073c-7.947-8.643-7.365-22.104 1.288-30.04 8.664-7.979 22.126-7.355 30.062 1.287l325.04 354.074c7.947 8.642 7.365 22.104-1.288 30.04a21.159 21.159 0 0 1-14.377 5.61z" p-id="3636"></path><path d="M511.99 636.984a21.155 21.155 0 0 1-14.377-5.61c-8.653-7.936-9.234-21.399-1.288-30.041l325.04-354.074c7.947-8.642 21.398-9.266 30.062-1.288 8.653 7.936 9.234 21.398 1.288 30.041l-325.04 354.074a21.237 21.237 0 0 1-15.685 6.898zM186.95 783.533a21.155 21.155 0 0 1-14.377-5.61c-8.653-7.935-9.234-21.398-1.288-30.04L401.071 497.56c7.935-8.643 21.398-9.266 30.061-1.288 8.653 7.936 9.235 21.398 1.289 30.041L202.635 776.635a21.238 21.238 0 0 1-15.685 6.898z" p-id="3637"></path><path d="M837.05 783.533a21.239 21.239 0 0 1-15.685-6.897l-229.713-250.24c-7.947-8.642-7.365-22.104 1.288-30.04 8.674-7.978 22.116-7.355 30.062 1.288l229.713 250.238c7.947 8.643 7.365 22.106-1.288 30.042a21.157 21.157 0 0 1-14.377 5.61z" p-id="3638"></path></svg>