<?xml version="1.0" standalone="no"?><!DOCTYPE svg PUBLIC "-//W3C//DTD SVG 1.1//EN" "http://www.w3.org/Graphics/SVG/1.1/DTD/svg11.dtd"><svg t="1512467911382" class="icon" style="" viewBox="0 0 1024 1024" version="1.1" xmlns="http://www.w3.org/2000/svg" p-id="11063" xmlns:xlink="http://www.w3.org/1999/xlink" width="200" height="200"><defs><style type="text/css"></style></defs><path d="M696.203 810.956c-3.123-0.018-6.087 0.496-8.684 1.561h-0.085c-2.077 0.859-4.060 2.245-5.779 4.133l-127.562 140.087c-1.41 1.542-2.898 3.038-4.393 4.375-11.837 10.583-27.236 15.951-42.466 15.969-15.303 0.018-30.721-5.301-42.575-16.073l-0.17-0.176c-1.204-1.113-2.578-2.516-4.15-4.272l-123.447-137.819c-1.458-1.628-3.328-2.832-5.423-3.618-3.019-1.149-6.486-1.748-10.069-1.906h-0.085c-33.481-1.609-57.479-1.712-83.161-1.797h-0.085c-32.827-0.121-68.437-0.278-125.899-3.244v0.036c-31.302 0-59.828-12.883-80.497-33.535l-0.054 0.049c-20.646-20.652-33.481-49.175-33.481-80.545v-507.495c0-31.283 12.847-59.808 33.481-80.462l0.054-0.036 0.036-0.049c20.652-20.634 49.175-33.481 80.462-33.481h795.779c31.369 0 59.893 12.829 80.545 33.481l-0.049 0.049c20.646 20.671 33.53 49.196 33.53 80.497v507.495c0 31.369-12.829 59.893-33.481 80.545s-49.175 33.486-80.545 33.486v-0.071c-50.932 0.999-94.651 1.7-129.281 2.16-42.433 0.569-70.958 0.756-82.467 0.654v0zM771.466 415.538c-24.065 0-43.568 19.503-43.568 43.568s19.502 43.568 43.568 43.568 43.568-19.503 43.568-43.568-19.502-43.568-43.568-43.568v0zM510.060 415.538c-24.065 0-43.568 19.503-43.568 43.568s19.503 43.568 43.568 43.568 43.568-19.503 43.568-43.568-19.503-43.568-43.568-43.568v0zM248.656 415.538c-24.065 0-43.568 19.503-43.568 43.568s19.503 43.568 43.568 43.568 43.568-19.503 43.568-43.568-19.503-43.568-43.568-43.568v0zM670.867 772.381l-0.018-0.036c7.946-3.292 16.671-4.852 25.698-4.781 11.212 0.085 39.417-0.102 81.611-0.653 34.098-0.448 77.721-1.167 129.366-2.179l0.43-0.085c19.344 0 36.96-7.946 49.74-20.724 12.78-12.773 20.719-30.394 20.719-49.74v-507.497c0-19.399-7.908-37.033-20.634-49.74h-0.085c-12.78-12.78-30.394-20.719-49.74-20.719h-795.778c-19.399 0-37.033 7.903-49.746 20.634l-0.085 0.085c-12.726 12.707-20.634 30.34-20.634 49.74v507.495c0 19.344 7.946 36.966 20.719 49.74v0.091c12.713 12.726 30.346 20.634 49.746 20.634l1.095 0.085c58.338 3.038 92.986 3.189 124.889 3.292h0.091c26.758 0.102 51.778 0.206 85.126 1.804 8.162 0.394 16.175 1.779 23.569 4.61 8.35 3.189 15.998 8.133 22.467 15.388l-0.049 0.036 123.327 137.782 1.234 1.187c3.564 3.244 8.435 4.852 13.312 4.852 4.956 0 9.911-1.683 13.549-4.918l1.269-1.252-0.054-0.036 127.477-140.087c6.105-6.686 13.33-11.659 21.389-15.005z" p-id="11064" fill="#ffffff"></path></svg>