<?xml version="1.0" standalone="no"?><!DOCTYPE svg PUBLIC "-//W3C//DTD SVG 1.1//EN" "http://www.w3.org/Graphics/SVG/1.1/DTD/svg11.dtd"><svg t="1512455472871" class="icon" style="" viewBox="0 0 1024 1024" version="1.1" xmlns="http://www.w3.org/2000/svg" p-id="5613" xmlns:xlink="http://www.w3.org/1999/xlink" width="200" height="200"><defs><style type="text/css"></style></defs><path d="M512 0c123.733 0 236.8 49.067 317.867 132.267C981.333 283.733 1004.8 526.933 883.2 704c-49.067 72.533-119.467 128-200.533 162.133L539.733 1011.2c-14.933 14.933-40.533 14.933-55.466 0v-2.133L341.333 866.133C258.133 832 189.867 776.533 140.8 704 19.2 526.933 40.533 283.733 194.133 132.267 275.2 49.067 388.267 0 512 0z m262.4 187.733c-66.133-68.266-160-108.8-262.4-108.8-102.4 0-196.267 42.667-262.4 108.8C123.733 313.6 106.667 514.133 204.8 659.2c42.667 61.867 100.267 108.8 170.667 136.533 6.4 2.134 10.666 4.267 14.933 10.667L512 930.133 633.6 806.4c4.267-4.267 8.533-6.4 14.933-8.533 70.4-27.734 130.134-74.667 170.667-136.534 100.267-147.2 81.067-347.733-44.8-473.6z" p-id="5614"></path><path d="M473.6 729.6a1.9 1.9 0 1 0 81.067 0 1.9 1.9 0 1 0-81.067 0zM416 347.733c0-27.733 10.667-49.066 27.733-66.133 8.534-10.667 21.334-17.067 32-21.333 12.8-4.267 25.6-8.534 38.4-8.534 23.467 0 46.934 8.534 66.134 27.734 8.533 8.533 12.8 17.066 19.2 25.6 8.533 17.066 12.8 36.266 10.666 55.466C608 377.6 599.467 396.8 584.533 409.6c-6.4 6.4-14.933 12.8-23.466 17.067-21.334 10.666-42.667 23.466-59.734 46.933-17.066 23.467-29.866 55.467-29.866 104.533 0 23.467 17.066 40.534 40.533 40.534s42.667-19.2 42.667-42.667c0-27.733 4.266-44.8 12.8-55.467C576 509.867 588.8 503.467 601.6 497.067c14.933-8.534 29.867-19.2 40.533-32 27.734-27.734 42.667-61.867 49.067-98.134 4.267-34.133-2.133-72.533-19.2-106.666-8.533-14.934-19.2-29.867-32-42.667-36.267-36.267-81.067-51.2-123.733-51.2-25.6 0-49.067 4.267-70.4 14.933-21.334 8.534-42.667 23.467-59.734 38.4-29.866 32-51.2 74.667-51.2 125.867 0 23.467 17.067 40.533 40.534 40.533S416 369.067 416 347.733z" p-id="5615"></path></svg>