<?xml version="1.0" standalone="no"?><!DOCTYPE svg PUBLIC "-//W3C//DTD SVG 1.1//EN" "http://www.w3.org/Graphics/SVG/1.1/DTD/svg11.dtd"><svg t="1512467223473" class="icon" style="" viewBox="0 0 1118 1024" version="1.1" xmlns="http://www.w3.org/2000/svg" p-id="9784" xmlns:xlink="http://www.w3.org/1999/xlink" width="218.359375" height="200"><defs><style type="text/css"></style></defs><path d="M1064.578986 6.668398Q547.18522 218.001524 30.489691 430.498379a50.73857 50.73857 0 0 0-30.256945 32.118911 53.99701 53.99701 0 0 0 31.65342 31.886166c95.658497 41.894232 191.549739 83.090227 288.604709 121.493273a65.634297 65.634297 0 0 1 47.945621 64.005077c7.913355 101.709886 18.619659 203.419771 30.256946 304.896911a32.351657 32.351657 0 0 0 61.677619 18.619658q83.322973-98.916937 162.922014-200.859568a33.980877 33.980877 0 0 1 51.669553-11.404541c101.709886 48.643858 203.885263 95.658497 306.293385 142.905881 39.101283 17.921421 55.160739 8.844338 59.117417-33.049894q38.868538-428.019404 77.271583-856.271555c2.792949-41.195995-13.731998-54.229756-53.066027-38.1703zM368.901988 577.360937c-77.969821-34.91186-157.10337-67.263517-235.538683-100.778903-8.146101-3.491186-16.059456-7.680609-31.653419-15.361218L932.612155 121.179299l4.422169 7.447863L674.962628 352.761304c-83.555718 71.685686-167.809674 142.673135-250.667155 215.289804a45.152672 45.152672 0 0 1-55.626231 9.542575z m73.08216 276.734677c-7.913355-77.504329-16.059456-155.008659-23.274573-232.745733a33.748131 33.748131 0 0 1 12.335524-23.274574q233.909462-201.557805 468.749907-402.184627a31.187928 31.187928 0 0 1 9.30983-3.723932l5.585897 5.585897-142.207643 156.405133c-82.624735 90.770836-164.551234 182.472655-248.572443 272.079763a159.663573 159.663573 0 0 0-41.661487 83.090227A772.250344 772.250344 0 0 1 442.216894 854.32836z m36.54108 38.868538l-7.447863-3.956678 44.919927-202.488788 93.098293 46.549147z m505.989226-18.619659L527.867324 663.476859 1047.355802 93.017065l7.913355 2.327458z" fill="#ffffff" p-id="9785"></path></svg>