<?xml version="1.0" standalone="no"?><!DOCTYPE svg PUBLIC "-//W3C//DTD SVG 1.1//EN" "http://www.w3.org/Graphics/SVG/1.1/DTD/svg11.dtd"><svg t="1512627789044" class="icon" style="" viewBox="0 0 1024 1024" version="1.1" xmlns="http://www.w3.org/2000/svg" p-id="1941" xmlns:xlink="http://www.w3.org/1999/xlink" width="200" height="200"><defs><style type="text/css"></style></defs><path d="M972.8 89.6c-19.2-6.4-51.2 6.4-51.2 6.4L51.2 524.8c0 0-19.2 12.8-19.2 25.6 0 19.2 19.2 32 19.2 32l313.6 96L384 620.8 147.2 550.4 870.4 192 448 704l0 256 64 0 0-236.8 313.6 108.8c0 0 19.2 6.4 32 0l0 0c12.8-6.4 19.2-25.6 19.2-25.6s121.6-665.6 121.6-672C998.4 115.2 992 96 972.8 89.6zM819.2 761.6l-262.4-96 358.4-435.2L819.2 761.6z" p-id="1942"></path></svg>