<?xml version="1.0" standalone="no"?><!DOCTYPE svg PUBLIC "-//W3C//DTD SVG 1.1//EN" "http://www.w3.org/Graphics/SVG/1.1/DTD/svg11.dtd"><svg t="1512455296896" class="icon" style="" viewBox="0 0 1024 1024" version="1.1" xmlns="http://www.w3.org/2000/svg" p-id="4923" xmlns:xlink="http://www.w3.org/1999/xlink" width="200" height="200"><defs><style type="text/css"></style></defs><path d="M763.229091 619.473455a178.967273 178.967273 0 0 0-150.923636 82.757818l-192.116364-109.661091c12.450909-24.250182 20.061091-51.339636 20.061091-80.570182 0-18.036364-3.397818-35.002182-8.424727-51.456l199.819636-114.013091c32.791273 35.467636 79.336727 58.065455 131.537454 58.065455 98.955636 0 179.339636-80.174545 179.339637-179.013819S862.138182 46.545455 763.182545 46.545455c-99.095273 0-179.362909 80.174545-179.362909 179.013818 0 18.036364 3.444364 35.072 8.354909 51.479272L392.354909 390.981818c-32.791273-35.467636-79.313455-57.995636-131.467636-57.995636-99.095273 0-179.409455 80.104727-179.409455 179.013818s80.314182 179.013818 179.362909 179.013818c40.913455 0 78.149818-14.219636 108.334546-37.189818l-0.698182 1.233455 217.297454 123.973818c-0.814545 6.353455-1.931636 12.660364-1.931636 19.502545 0 98.653091 80.267636 178.920727 179.362909 178.920727 98.955636 0 179.339636-80.244364 179.339637-178.920727 0.023273-98.909091-80.337455-179.060364-179.316364-179.060363z m0-501.387637a107.636364 107.636364 0 0 1 107.682909 107.426909 107.566545 107.566545 0 0 1-107.682909 107.403637 107.52 107.52 0 0 1-107.682909-107.403637 107.543273 107.543273 0 0 1 107.682909-107.426909zM260.887273 619.473455a107.450182 107.450182 0 1 1 0-214.900364A107.52 107.52 0 0 1 368.523636 512a107.52 107.52 0 0 1-107.636363 107.473455z m502.341818 286.510545a107.589818 107.589818 0 0 1-107.682909-107.380364 107.52 107.52 0 0 1 107.682909-107.566545 107.589818 107.589818 0 0 1 107.682909 107.566545c0 59.159273-48.290909 107.380364-107.682909 107.380364z" p-id="4924"></path></svg>