<?xml version="1.0" standalone="no"?><!DOCTYPE svg PUBLIC "-//W3C//DTD SVG 1.1//EN" "http://www.w3.org/Graphics/SVG/1.1/DTD/svg11.dtd"><svg t="1512629924516" class="icon" style="" viewBox="0 0 1024 1024" version="1.1" xmlns="http://www.w3.org/2000/svg" p-id="4312" xmlns:xlink="http://www.w3.org/1999/xlink" width="200" height="200"><defs><style type="text/css"></style></defs><path d="M767.104 959.936c-5.344 0-10.688-1.344-15.52-4.032L510.272 822.048 268.448 955.072c-10.72 5.92-23.904 5.152-33.888-1.92-10.016-7.072-15.104-19.264-13.12-31.328l46.88-284.736L71.872 435.008c-8.256-8.512-11.168-20.928-7.456-32.192 3.68-11.296 13.312-19.616 25.024-21.632l155.072-26.592c17.632-2.944 33.984 8.736 36.96 26.144 2.976 17.408-8.704 33.952-26.144 36.96l-95.168 16.32 165.344 170.08c7.072 7.296 10.272 17.504 8.64 27.488l-38.816 235.68L494.944 757.44c9.632-5.312 21.344-5.312 30.944 0.064l199.168 110.464L687.04 632.192c-1.632-10.016 1.632-20.224 8.704-27.456L860.416 436.48l-225.664-34.816c-10.56-1.632-19.584-8.416-24.128-18.08l-99.2-212.384L411.36 383.04c-7.552 16-26.624 22.816-42.624 15.264-15.968-7.552-22.816-26.624-15.264-42.624L482.624 82.24c5.312-11.2 16.576-18.336 28.928-18.336 0 0 0.032 0 0.064 0 12.416 0.032 23.68 7.232 28.928 18.464l120.8 258.624L931.68 382.72c11.872 1.824 21.696 10.144 25.504 21.504 3.776 11.36 0.864 23.936-7.488 32.48L752.768 637.92l45.92 284.864c1.952 12.096-3.2 24.256-13.216 31.296C780 958.016 773.568 959.936 767.104 959.936z" fill="" p-id="4313"></path></svg>