<?xml version="1.0" standalone="no"?><!DOCTYPE svg PUBLIC "-//W3C//DTD SVG 1.1//EN" "http://www.w3.org/Graphics/SVG/1.1/DTD/svg11.dtd"><svg t="1512465994231" class="icon" style="" viewBox="0 0 1024 1024" version="1.1" xmlns="http://www.w3.org/2000/svg" p-id="9100" xmlns:xlink="http://www.w3.org/1999/xlink" width="200" height="200"><defs><style type="text/css"></style></defs><path d="M912.717498 342.707292c-21.904892-51.791573-53.260018-98.299817-93.192495-138.231271-39.932478-39.932478-86.440721-71.287603-138.232295-93.193519-53.633524-22.685675-110.591771-34.187637-169.292708-34.187637-58.700937 0-115.659183 11.501962-169.292708 34.187637-51.79055 21.905916-98.298793 53.260018-138.231271 93.193519-39.932478 39.932478-71.287603 86.440721-93.193519 138.231271-22.684652 53.633524-34.187637 110.591771-34.187637 169.292708 0 58.700937 11.501962 115.659183 34.187637 169.292708 21.905916 51.791573 53.261041 98.299817 93.193519 138.232295s86.440721 71.287603 138.231271 93.192495c53.633524 22.685675 110.591771 34.187637 169.292708 34.187637 58.699913 0 115.65816-11.501962 169.292708-34.187637 51.791573-21.904892 98.299817-53.260018 138.232295-93.192495s71.287603-86.440721 93.192495-138.232295c22.685675-53.633524 34.187637-110.591771 34.187637-169.292708C946.905134 453.299063 935.403173 396.340817 912.717498 342.707292zM783.344988 783.344988c-72.478731 72.478731-168.844499 112.394836-271.344988 112.394836S313.133743 855.82372 240.655012 783.344988 128.260176 614.500489 128.260176 512c0-102.500489 39.916105-198.866257 112.394836-271.344988s168.844499-112.394836 271.344988-112.394836 198.866257 39.916105 271.344988 112.394836S895.739824 409.499511 895.739824 512C895.739824 614.500489 855.82372 710.866257 783.344988 783.344988z" p-id="9101"></path><path d="M537.582655 225.474264c0-14.128789-11.453866-25.582655-25.582655-25.582655s-25.582655 11.453866-25.582655 25.582655l0 274.246061c0 2.117221 0.261966 4.172019 0.747014 6.139837-0.485047 1.967818-0.747014 4.022617-0.747014 6.139837 0 14.128789 11.453866 25.582655 25.582655 25.582655l286.525736 0c14.128789 0 25.582655-11.452843 25.582655-25.582655s-11.453866-25.582655-25.582655-25.582655l-260.943081 0L537.582655 225.474264z" p-id="9102"></path></svg>