<?xml version="1.0" standalone="no"?><!DOCTYPE svg PUBLIC "-//W3C//DTD SVG 1.1//EN" "http://www.w3.org/Graphics/SVG/1.1/DTD/svg11.dtd"><svg t="1512460941872" class="icon" style="" viewBox="0 0 1024 1024" version="1.1" xmlns="http://www.w3.org/2000/svg" p-id="7726" xmlns:xlink="http://www.w3.org/1999/xlink" width="200" height="200"><defs><style type="text/css"></style></defs><path d="M511.979022 144.650471c-271.745101 0-492.170372 354.502943-492.170372 354.502943S240.234945 853.689103 511.979022 853.689103c271.852548 0 492.211305-354.535689 492.211305-354.535689S783.83157 144.650471 511.979022 144.650471zM511.979022 787.362488c-229.55214 0-415.643442-288.209074-415.643442-288.209074s186.091302-288.177352 415.643442-288.177352c229.525534 0 415.716096 288.177352 415.716096 288.177352S741.504556 787.362488 511.979022 787.362488z" p-id="7727"></path><path d="M511.979022 353.771279c-80.260975 0-145.348366 65.016783-145.348366 145.382135 0 80.234369 65.087391 145.31562 145.348366 145.31562 80.266092 0 145.422044-65.082274 145.422044-145.31562C657.402089 418.788062 592.246137 353.771279 511.979022 353.771279zM511.979022 594.809007c-52.836369 0-95.65457-42.88267-95.65457-95.655594 0-52.837392 42.817178-95.582939 95.65457-95.582939 52.845579 0 95.623871 42.744523 95.623871 95.582939C607.603917 551.926338 564.824601 594.809007 511.979022 594.809007z" p-id="7728"></path></svg>