<?xml version="1.0" standalone="no"?><!DOCTYPE svg PUBLIC "-//W3C//DTD SVG 1.1//EN" "http://www.w3.org/Graphics/SVG/1.1/DTD/svg11.dtd"><svg t="1512438427312" class="icon" style="" viewBox="0 0 1024 1024" version="1.1" xmlns="http://www.w3.org/2000/svg" p-id="1992" xmlns:xlink="http://www.w3.org/1999/xlink" width="200" height="200"><defs><style type="text/css"></style></defs><path d="M982.181783 827.855703 221.099616 827.855703C204.711275 827.855703 191.425865 814.571379 191.425865 798.184666L191.425865 783.914328C191.425865 767.527614 204.711275 754.240034 221.099616 754.240034L982.181783 754.240034C998.570395 754.240034 1011.855534 767.527614 1011.855534 783.914328L1011.855534 798.184666C1011.855534 814.571379 998.570395 827.855703 982.181783 827.855703ZM982.181783 540.201242 221.099616 540.201242C204.711275 540.201242 191.425865 526.916918 191.425865 510.530205L191.425865 496.259595C191.425865 479.876138 204.711275 466.585302 221.099616 466.585302L982.181783 466.585302C998.570395 466.585302 1011.855534 479.876138 1011.855534 496.259595L1011.855534 510.530205C1011.855534 526.916918 998.570395 540.201242 982.181783 540.201242ZM982.181783 223.427358 221.099616 223.427358C204.711275 223.427358 191.425865 210.146289 191.425865 193.75632L191.425865 179.492223C191.425865 163.102525 204.711275 149.814673 221.099616 149.814673L982.181783 149.814673C998.570395 149.814673 1011.855534 163.102525 1011.855534 179.492223L1011.855534 193.75632C1011.855534 210.146289 998.570395 223.427358 982.181783 223.427358ZM56.694164 836.999529C31.84195 836.999529 11.695144 816.854079 11.695144 791.999695 11.695144 767.148837 31.84195 747.000131 56.694164 747.000131 81.546378 747.000131 101.693185 767.148837 101.693185 791.999695 101.693185 816.854079 81.546378 836.999529 56.694164 836.999529ZM56.694164 549.344797C31.84195 549.344797 11.695144 529.196091 11.695144 504.34849 11.695144 479.494105 31.84195 459.348926 56.694164 459.348926 81.546378 459.348926 101.693185 479.494105 101.693185 504.34849 101.693185 529.196091 81.546378 549.344797 56.694164 549.344797ZM56.694164 232.570913C31.84195 232.570913 11.695144 212.425734 11.695144 187.574605 11.695144 162.723748 31.84195 142.578298 56.694164 142.578298 81.546378 142.578298 101.693185 162.723748 101.693185 187.574605 101.693185 212.425734 81.546378 232.570913 56.694164 232.570913Z" p-id="1993" fill="#ffffff"></path></svg>